<?xml version="1.0" encoding="UTF-8"?>
<svg id="Livello_2" data-name="Livello 2" xmlns="http://www.w3.org/2000/svg" viewBox="0 0 554.32 554.32">
  <defs>
    <style>
      .cls-1 {
        fill: #ff0032;
      }
    </style>
  </defs>
  <g id="Livello_1-2" data-name="Livello 1">
    <g>
      <path d="m109.19,80.78h-37.6v-30.9c0-5.21-1.45-9.33-4.34-12.35-2.9-3.02-7.12-4.53-12.66-4.53-5.05,0-9.06,1.36-12.04,4.1-2.98,2.73-4.47,6.12-4.47,10.17v30.03c0,4.71,1.1,8.36,3.29,10.92,2.19,2.56,5.89,4.92,11.11,7.07l20.35,7.69c13.23,5.05,23.08,11.17,29.53,18.36,6.45,7.2,9.68,17.74,9.68,31.64v39.46c0,15.97-5.09,28.71-15.26,38.22-10.17,9.51-23.66,14.27-40.45,14.27s-30.63-4.3-40.51-12.9c-9.89-8.6-14.83-20.23-14.83-34.87v-41.32h38.09v38.09c0,5.21,1.49,9.47,4.47,12.78,2.98,3.31,7.24,4.96,12.78,4.96,5.04,0,9.14-1.61,12.28-4.84,3.14-3.23,4.71-7.2,4.71-11.91v-37.1c0-9.51-5.67-16.3-17-20.35l-21.34-7.32c-12-4.05-20.83-9.86-26.49-17.43C2.83,105.16,0,94.97,0,82.14v-33.38c0-13.9,4.69-25.5,14.08-34.81C23.47,4.65,37.14,0,55.09,0s30.83,4.2,40.14,12.59c9.31,8.4,13.96,19.46,13.96,33.19v34.99Z"/>
      <path d="m198.04,244.69c-7.94,0-14.46-1.95-19.54-5.83-5.09-3.89-9.82-9.47-14.21-16.75v45.79h-37.35V33.87h33.01l3.35,21.34c7.94-16.13,19.52-24.11,34.74-23.95,10.17.17,18.49,3.89,24.94,11.17,6.45,7.28,9.68,18.49,9.68,33.63v123.96c0,15.06-3.23,26.26-9.68,33.63-6.45,7.36-14.77,11.04-24.94,11.04Zm-17.99-31.52c9.84,0,14.72-6.91,14.64-20.72v-108.82c0-13.9-4.88-20.85-14.64-20.85-10.34,0-15.51,7.28-15.51,21.84v106.71c0,14.56,5.17,21.84,15.51,21.84Z"/>
      <path d="m126.94,284.69h37.6v241.46h-37.6v-241.46Z"/>
      <path d="m182.29,317.58h37.6v208.58h-37.6v-208.58Zm.25-32.88h37.1v24.2h-37.1v-24.2Z"/>
      <path d="m306.76,317.33h33.25v191.09c0,15.97-4.24,27.61-12.72,34.93-8.48,7.32-19.42,10.98-32.82,10.98h-49.01v-31.27h38.59c12.57,0,18.86-5.83,18.86-17.5v-18.49c-4.55,8.6-9.29,14.97-14.21,19.11-4.92,4.14-11.52,6.12-19.79,5.96-10.17,0-18.49-3.56-24.94-10.67-6.45-7.11-9.68-17.87-9.68-32.26v-111.05c0-14.39,3.23-25.15,9.68-32.26,6.45-7.11,14.77-10.67,24.94-10.67,7.94,0,14.5,2.13,19.67,6.39,5.17,4.26,9.95,10.2,14.33,17.81l3.85-22.09Zm-20.1,29.41c-9.85,0-14.77,6.62-14.77,19.85v92.94c0,13.9,4.92,20.85,14.77,20.85,10.5,0,15.76-7.2,15.76-21.59v-90.46c0-14.39-5.25-21.59-15.76-21.59Z"/>
      <path d="m431.97,315.22c9.18,0,16.46,3.02,21.84,9.06,5.38,6.04,8.07,15.39,8.07,28.04v173.84h-37.35v-163.91c0-9.51-4.3-14.27-12.9-14.27-4.55,0-8.44,1.7-11.66,5.09-3.23,3.39-4.84,8.15-4.84,14.27v158.82h-37.35v-241.46h37.35v54.97c3.56-6.45,8.56-12.18,15.01-17.19,6.45-5,13.73-7.42,21.84-7.26Z"/>
      <path d="m553.58,73.97h-29.78v403.18c0,10.67,4.67,16.01,14.02,16.01h16.5v33.01h-24.82c-14.06,0-24.75-3.56-32.07-10.67-7.32-7.11-10.98-17.04-10.98-29.78V73.97h-21.59v-30.4c11.99,0,19.83-2,23.51-6.02,3.68-4.01,6.51-12.26,8.5-24.75h27.79v30.77h28.91v30.4Z"/>
      <path class="cls-1" d="m246.27,137.67c0,67.99,39.03,107.02,107.02,107.02s106.41-39.03,106.41-107.02-38.42-106.41-106.41-106.41-107.02,38.42-107.02,106.41Z"/>
    </g>
  </g>
</svg>